<svg viewBox="0 0 24 24" xmlns="http://www.w3.org/2000/svg">
  <g>
    <path
      d="M 150,261 139,201 A 49.3,49.3 45 0 0 99.5,162 L 39.3,150 99.5,139 A 49.3,49.3 135 0 0 139,99.5 l 11,-60.2 12,60.2 a 49.3,49.3 45 0 0 39,39.5 l 60,11 -60,12 a 49.3,49.3 135 0 0 -39,39 z"
      transform="matrix(0.099,0,0,0.099,-2.85,-2.85)"
    />
    <circle cx="5.22" cy="18.8" r="5.22" />
    <circle cx="18.8" cy="18.8" r="5.22" />
    <circle cx="18.8" cy="5.22" r="5.22" />
    <circle cx="5.22" cy="5.22" r="5.22" />
  </g>
</svg>
